<svg width="65" height="53" viewBox="0 0 65 53" fill="none" xmlns="http://www.w3.org/2000/svg">
<path d="M32.9999 52.062C27.8763 51.979 22.8915 50.3839 18.6716 47.477C14.4517 44.5701 11.1848 40.4811 9.28129 35.7235C7.37781 30.9659 6.92261 25.752 7.97287 20.7365C9.02312 15.721 11.532 11.1278 15.1844 7.53359C18.8367 3.93942 23.4697 1.50463 28.5014 0.535066C33.5331 -0.434499 38.7391 0.104385 43.4655 2.08403C48.1919 4.06368 52.2279 7.39581 55.0667 11.6619C57.9054 15.928 59.4202 20.9378 59.4209 26.062C59.3567 33.0108 56.5391 39.6505 51.586 44.5247C46.6329 49.3988 39.9489 52.1094 32.9999 52.062ZM32.9999 0.844003C28.0295 0.923631 23.1935 2.4703 19.0993 5.28971C15.0052 8.10913 11.8355 12.0755 9.98849 16.6907C8.14146 21.3058 7.69946 26.3639 8.718 31.2295C9.73655 36.095 12.1702 40.5511 15.7133 44.0379C19.2564 47.5247 23.7508 49.8867 28.6321 50.8272C33.5133 51.7678 38.5637 51.2448 43.1486 49.3242C47.7336 47.4035 51.6488 44.1707 54.4023 40.032C57.1558 35.8932 58.6249 31.033 58.6249 26.062C58.5628 19.3224 55.8302 12.8825 51.0263 8.15493C46.2225 3.42738 39.7397 0.798172 32.9999 0.844003ZM32.9999 50.495C28.1842 50.4179 23.4986 48.9195 19.5319 46.1879C15.5651 43.4562 12.494 39.6133 10.7044 35.1418C8.9148 30.6703 8.4865 25.7697 9.4733 21.0555C10.4601 16.3414 12.818 12.0239 16.2508 8.64562C19.6836 5.26731 24.0382 2.97878 28.7675 2.06751C33.4968 1.15623 38.39 1.66287 42.8323 3.52377C47.2746 5.38467 51.0679 8.51683 53.7357 12.5268C56.4036 16.5368 57.8269 21.2457 57.8269 26.062C57.7667 32.5918 55.1191 38.8311 50.4649 43.4114C45.8107 47.9918 39.5298 50.5392 32.9999 50.495ZM32.9999 2.411C28.3383 2.48551 23.8026 3.93594 19.9627 6.58008C16.1228 9.22422 13.1499 12.9442 11.4175 17.2726C9.68514 21.601 9.27048 26.3448 10.2257 30.9081C11.1808 35.4715 13.4633 39.6508 16.7862 42.921C20.1091 46.1912 24.3243 48.4066 28.9023 49.2887C33.4803 50.1709 38.217 49.6804 42.5171 47.8791C46.8173 46.0778 50.4892 43.0458 53.0717 39.1641C55.6541 35.2825 57.0319 30.7242 57.0319 26.062C56.9735 19.7413 54.4107 13.7018 49.9056 9.26808C45.4004 4.83434 39.3207 2.36837 32.9999 2.411Z" fill="black"/>
<path d="M64.4229 34.144V18.456C64.4267 18.2834 64.3956 18.1118 64.3314 17.9515C64.2673 17.7913 64.1713 17.6456 64.0494 17.5234C63.9276 17.4011 63.7822 17.3047 63.6221 17.2401C63.4621 17.1754 63.2906 17.1437 63.1179 17.147H44.1749C42.7866 15.4397 41.0352 14.0633 39.048 13.1179C37.0609 12.1726 34.888 11.682 32.6874 11.682C30.4869 11.682 28.314 12.1726 26.3269 13.1179C24.3397 14.0633 22.5883 15.4397 21.1999 17.147H2.87994C2.70725 17.1434 2.53563 17.1749 2.37543 17.2395C2.21523 17.304 2.06976 17.4004 1.94781 17.5227C1.82586 17.645 1.72995 17.7908 1.66587 17.9512C1.60179 18.1116 1.57086 18.2833 1.57494 18.456V34.144C1.57114 34.3166 1.60226 34.4882 1.66645 34.6485C1.73063 34.8087 1.82655 34.9544 1.94844 35.0766C2.07034 35.1989 2.21568 35.2953 2.37576 35.36C2.53583 35.4246 2.70733 35.4563 2.87994 35.453H20.7869C22.1645 37.312 23.9585 38.8225 26.025 39.8632C28.0915 40.904 30.3731 41.4461 32.6869 41.4461C35.0008 41.4461 37.2824 40.904 39.3489 39.8632C41.4154 38.8225 43.2094 37.312 44.5869 35.453H63.1179C63.2906 35.4566 63.4623 35.4251 63.6225 35.3605C63.7827 35.296 63.9281 35.1996 64.0501 35.0773C64.172 34.9549 64.2679 34.8092 64.332 34.6488C64.3961 34.4884 64.427 34.3167 64.4229 34.144Z" fill="black"/>
<path d="M32.6849 42.018C30.3292 42.0255 28.0036 41.4885 25.8897 40.4487C23.7758 39.4089 21.9309 37.8946 20.4989 36.024H2.87293C2.62456 36.0308 2.37743 35.9868 2.14666 35.8947C1.9159 35.8026 1.70637 35.6644 1.53092 35.4884C1.35547 35.3125 1.21778 35.1026 1.12631 34.8716C1.03483 34.6406 0.991484 34.3934 0.998929 34.145V18.451C0.9912 18.2025 1.03434 17.9551 1.12571 17.7239C1.21707 17.4927 1.35473 17.2827 1.53022 17.1066C1.70572 16.9305 1.91536 16.7922 2.14625 16.7001C2.37715 16.608 2.62444 16.5641 2.87293 16.571H20.9289C22.3721 14.8584 24.1719 13.4818 26.2027 12.5374C28.2334 11.5931 30.4459 11.1038 32.6854 11.1038C34.925 11.1038 37.1375 11.5931 39.1682 12.5374C41.1989 13.4818 42.9988 14.8584 44.4419 16.571H63.1249C63.3734 16.5642 63.6206 16.6083 63.8514 16.7004C64.0823 16.7926 64.2918 16.9309 64.4673 17.1069C64.6428 17.2829 64.7804 17.493 64.8719 17.7241C64.9633 17.9552 65.0065 18.2026 64.9989 18.451V34.144C65.0067 34.3925 64.9635 34.6399 64.8722 34.8711C64.7808 35.1023 64.6431 35.3124 64.4676 35.4884C64.2921 35.6645 64.0825 35.8028 63.8516 35.8949C63.6207 35.987 63.3734 36.0309 63.1249 36.024H44.8679C43.4363 37.8943 41.5919 39.4084 39.4786 40.4481C37.3652 41.4879 35.0402 42.0252 32.6849 42.018ZM2.87293 16.762C2.64957 16.7558 2.4273 16.7953 2.21977 16.8781C2.01224 16.9608 1.82382 17.0852 1.66611 17.2435C1.50839 17.4018 1.38471 17.5906 1.30265 17.7984C1.22059 18.0063 1.18189 18.2287 1.18893 18.452V34.145C1.18203 34.3683 1.22083 34.5906 1.30294 34.7984C1.38505 35.0062 1.50875 35.195 1.66643 35.3532C1.82412 35.5115 2.01247 35.6358 2.21994 35.7187C2.42741 35.8015 2.64961 35.8411 2.87293 35.835H20.5989L20.6279 35.872C22.046 37.7242 23.8716 39.2249 25.9632 40.2578C28.0548 41.2907 30.3562 41.8279 32.6889 41.8279C35.0217 41.8279 37.323 41.2907 39.4146 40.2578C41.5062 39.2249 43.3319 37.7242 44.7499 35.872L44.7789 35.835H63.1289C63.3523 35.8413 63.5746 35.8018 63.7821 35.719C63.9896 35.6362 64.178 35.5118 64.3358 35.3535C64.4935 35.1953 64.6172 35.0064 64.6992 34.7986C64.7813 34.5907 64.82 34.3683 64.8129 34.145V18.451C64.8198 18.2277 64.781 18.0054 64.6989 17.7976C64.6168 17.5898 64.4931 17.401 64.3354 17.2428C64.1777 17.0846 63.9894 16.9602 63.7819 16.8773C63.5745 16.7945 63.3522 16.7549 63.1289 16.761H44.3529L44.3239 16.727C42.8987 15.0259 41.1179 13.6579 39.1069 12.7193C37.0959 11.7807 34.9037 11.2943 32.6844 11.2943C30.4652 11.2943 28.2729 11.7807 26.262 12.7193C24.251 13.6579 22.4702 15.0259 21.0449 16.727L21.0169 16.761L2.87293 16.762ZM32.6849 41.542C30.3629 41.5504 28.0714 41.0123 25.9958 39.9712C23.9202 38.9301 22.1187 37.4152 20.7369 35.549H2.87293C2.62144 35.5664 2.37049 35.5084 2.15212 35.3825C1.93374 35.2565 1.75786 35.0684 1.64693 34.842C1.54143 34.6232 1.48252 34.3848 1.47393 34.142V18.451C1.4558 18.1997 1.51264 17.9487 1.63725 17.7298C1.76186 17.5108 1.94863 17.3338 2.17393 17.221C2.39103 17.1155 2.6277 17.0562 2.86893 17.047H21.1519C22.5494 15.338 24.3092 13.961 26.304 13.0153C28.2988 12.0697 30.4788 11.5791 32.6864 11.5791C34.894 11.5791 37.0741 12.0697 39.0689 13.0153C41.0637 13.961 42.8234 15.338 44.2209 17.047H63.1209C63.3724 17.0296 63.6234 17.0876 63.8417 17.2135C64.0601 17.3395 64.236 17.5276 64.3469 17.754C64.4523 17.9729 64.5112 18.2112 64.5199 18.454V34.147C64.5381 34.3983 64.4812 34.6493 64.3566 34.8682C64.232 35.0872 64.0452 35.2643 63.8199 35.377C63.6028 35.4825 63.3661 35.5418 63.1249 35.551H44.6329C43.2508 37.4167 41.4492 38.931 39.3736 39.9715C37.298 41.0121 35.0067 41.5497 32.6849 41.541V41.542ZM21.1989 17.238H2.87293C2.66121 17.2471 2.45361 17.2995 2.26293 17.392C2.06911 17.489 1.90855 17.6416 1.8017 17.8302C1.69485 18.0187 1.64654 18.2349 1.66293 18.451V34.144C1.67183 34.3563 1.72389 34.5645 1.81593 34.756C1.91235 34.9497 2.06432 35.1102 2.25241 35.2171C2.44051 35.3239 2.6562 35.3723 2.87193 35.356H20.8319L20.8599 35.394C22.2289 37.2409 24.0114 38.7414 26.0648 39.7753C28.1181 40.8092 30.385 41.3477 32.6839 41.3477C34.9828 41.3477 37.2498 40.8092 39.3031 39.7753C41.3564 38.7414 43.139 37.2409 44.5079 35.394L44.5369 35.356H63.1249C63.3366 35.3472 63.5442 35.2951 63.7349 35.203C63.9288 35.1058 64.0894 34.9531 64.1963 34.7643C64.3031 34.5756 64.3514 34.3593 64.3349 34.143V18.451C64.326 18.2387 64.2739 18.0305 64.1819 17.839C64.0855 17.6453 63.9335 17.4848 63.7454 17.3779C63.5573 17.2711 63.3417 17.2227 63.1259 17.239H44.1299L44.1009 17.204C42.7214 15.507 40.981 14.1389 39.0062 13.1992C37.0314 12.2596 34.8719 11.772 32.6849 11.772C30.498 11.772 28.3385 12.2596 26.3637 13.1992C24.3889 14.1389 22.6484 15.507 21.2689 17.204L21.2399 17.239L21.1989 17.238ZM32.6879 41.067C30.4311 41.0757 28.2042 40.5513 26.1884 39.5364C24.1727 38.5216 22.4251 37.0451 21.0879 35.227L20.9739 35.074H2.87393C2.75009 35.082 2.62598 35.0634 2.50989 35.0195C2.3938 34.9757 2.2884 34.9076 2.20075 34.8197C2.1131 34.7319 2.0452 34.6263 2.0016 34.5102C1.958 34.394 1.9397 34.2698 1.94793 34.146V18.446C1.93974 18.3222 1.95801 18.1981 2.00154 18.082C2.04508 17.9658 2.11286 17.8603 2.20039 17.7724C2.28791 17.6845 2.39316 17.6162 2.50913 17.5722C2.6251 17.5282 2.74912 17.5093 2.87293 17.517H21.3729L21.4869 17.377C22.8399 15.7126 24.5469 14.3708 26.4837 13.4492C28.4206 12.5275 30.5385 12.0493 32.6834 12.0493C34.8284 12.0493 36.9463 12.5275 38.8831 13.4492C40.82 14.3708 42.527 15.7126 43.8799 17.377L43.9939 17.517H63.1239C63.2478 17.509 63.3719 17.5276 63.488 17.5715C63.6041 17.6153 63.7095 17.6834 63.7971 17.7713C63.8848 17.8591 63.9527 17.9647 63.9963 18.0808C64.0399 18.197 64.0582 18.3212 64.0499 18.445V34.145C64.0581 34.2688 64.0398 34.3929 63.9963 34.509C63.9528 34.6252 63.885 34.7307 63.7975 34.8186C63.7099 34.9066 63.6047 34.9748 63.4887 35.0188C63.3728 35.0628 63.2487 35.0817 63.1249 35.074H44.3989L44.2849 35.227C42.9479 37.0451 41.2003 38.5217 39.1845 39.5365C37.1687 40.5514 34.9417 41.0758 32.6849 41.067H32.6879ZM2.87593 17.712C2.77709 17.7045 2.67779 17.7184 2.58487 17.7529C2.49195 17.7875 2.40761 17.8417 2.33766 17.9119C2.26771 17.9822 2.21381 18.0667 2.17968 18.1598C2.14554 18.2529 2.13198 18.3522 2.13993 18.451V34.144C2.13198 34.2428 2.14554 34.3422 2.17968 34.4352C2.21381 34.5283 2.26771 34.6128 2.33766 34.6831C2.40761 34.7533 2.49195 34.8076 2.58487 34.8421C2.67779 34.8766 2.77709 34.8906 2.87593 34.883H21.0759L21.2469 35.112C22.5719 36.8999 24.2972 38.3526 26.2847 39.3535C28.2722 40.3544 30.4666 40.8757 32.6919 40.8757C34.9172 40.8757 37.1116 40.3544 39.0991 39.3535C41.0866 38.3526 42.812 36.8999 44.1369 35.112L44.3079 34.883H63.1249C63.2238 34.8906 63.3231 34.8766 63.416 34.8421C63.5089 34.8076 63.5932 34.7533 63.6632 34.6831C63.7331 34.6128 63.787 34.5283 63.8212 34.4352C63.8553 34.3422 63.8689 34.2428 63.8609 34.144V18.451C63.8689 18.3522 63.8553 18.2529 63.8212 18.1598C63.787 18.0667 63.7331 17.9822 63.6632 17.9119C63.5932 17.8417 63.5089 17.7875 63.416 17.7529C63.3231 17.7184 63.2238 17.7045 63.1249 17.712H43.9049L43.7339 17.503C42.3988 15.8602 40.7142 14.5357 38.8027 13.6261C36.8912 12.7164 34.8009 12.2444 32.6839 12.2444C30.567 12.2444 28.4767 12.7164 26.5652 13.6261C24.6537 14.5357 22.969 15.8602 21.6339 17.503L21.4629 17.712H2.87593Z" fill="black"/>
<path d="M26.1689 35.115C30.5119 35.115 34.3199 32.034 34.3199 26.43C34.3199 20.826 30.5109 17.745 26.1689 17.745C21.8269 17.745 18.0179 20.826 18.0179 26.43C18.0179 32.034 21.8269 35.115 26.1689 35.115ZM26.1689 32.495C23.6689 32.495 21.8989 30.651 21.8989 26.503C21.8989 22.33 23.6699 20.414 26.1689 20.414C28.6439 20.414 30.4389 22.331 30.4389 26.503C30.4389 30.652 28.6389 32.495 26.1689 32.495ZM36.528 34.921H47.9789V32.252H40.2639V27.594H45.601V24.994H40.2639V20.679H47.7119V17.939H36.5289V34.921H36.528Z" fill="white"/>
<path d="M18.8779 15.664L19.4779 15.094L18.9339 13.987L20.0629 12.911L21.1519 13.498L21.8739 12.809L21.6869 12.609L17.5669 10.52L16.7969 11.254L18.6969 15.464L18.8839 15.664H18.8779ZM17.8169 11.717L17.8269 11.708L19.4049 12.559L18.6049 13.325L17.8199 11.717H17.8169ZM22.3539 12.517L23.2379 11.987L22.3789 10.553L22.7869 10.308C23.8079 9.69699 24.1379 8.936 23.6249 8.08C23.1119 7.224 22.2949 7.15901 21.2919 7.76001L19.9769 8.548L22.3539 12.516V12.517ZM21.2409 8.654L21.6489 8.40901C22.2099 8.07301 22.4869 8.2 22.7409 8.625C22.9949 9.05 22.9679 9.38999 22.4299 9.71299L22.0219 9.958L21.2409 8.658V8.654ZM25.7879 10.578L26.7659 10.251L26.2359 8.665L26.6869 8.514C27.8149 8.137 28.3009 7.465 27.9869 6.514C27.6729 5.563 26.8869 5.328 25.7769 5.699L24.3229 6.18499L25.7899 10.572L25.7879 10.578ZM25.5329 6.56601L25.9839 6.415C26.6039 6.20701 26.8469 6.391 27.0039 6.861C27.1609 7.331 27.0609 7.661 26.4659 7.861L26.0149 8.01201L25.5329 6.571V6.56601ZM32.1609 9.134L33.0999 9.03401L33.0709 8.765L31.9179 7.14199C32.1404 7.00544 32.3166 6.80508 32.4236 6.56697C32.5306 6.32886 32.5635 6.06404 32.5179 5.807C32.4179 4.92 31.7349 4.529 30.6049 4.652L29.0609 4.819L29.5609 9.419L30.5859 9.30799L30.3859 7.50801L30.9859 7.443L32.1609 9.134ZM30.1609 5.434L30.6539 5.38101C31.1929 5.32201 31.4409 5.528 31.4899 5.975C31.5389 6.422 31.3409 6.689 30.8029 6.748L30.3099 6.80101L30.1609 5.43499V5.434ZM35.6079 9.367C36.0741 9.45987 36.5575 9.41043 36.9953 9.22511C37.4331 9.03979 37.805 8.72717 38.0629 8.32779C38.3208 7.92841 38.4526 7.46072 38.4414 6.98545C38.4301 6.51019 38.2762 6.0493 37.9997 5.66259C37.7232 5.27589 37.3368 4.98123 36.8907 4.81688C36.4447 4.65252 35.9595 4.62607 35.4982 4.74093C35.0368 4.8558 34.6207 5.10667 34.3038 5.46101C33.9869 5.81535 33.7838 6.25679 33.7209 6.72801C33.6563 7.02662 33.655 7.33543 33.7168 7.63461C33.7787 7.93379 33.9025 8.21671 34.0802 8.46522C34.2579 8.71374 34.4856 8.92235 34.7487 9.07765C35.0118 9.23295 35.3044 9.33151 35.6079 9.367ZM35.7019 8.66C35.0269 8.57 34.6159 8.008 34.7659 6.888C34.9159 5.768 35.4659 5.30801 36.1389 5.39801C36.8119 5.48801 37.2229 6.06999 37.0719 7.19799C36.9209 8.32599 36.3719 8.751 35.7019 8.662V8.66ZM39.3309 10.23L40.3129 10.623L43.3409 7.143L43.4409 6.891L42.6489 6.57499L40.3399 9.324H40.3279L40.5569 5.74301L39.6429 5.377L39.5429 5.62899L39.3319 10.235L39.3309 10.23ZM42.1879 11.508L44.7709 13.256L45.1789 12.656L43.4379 11.478L44.1489 10.427L45.3489 11.242L45.7489 10.656L44.5489 9.841L45.2079 8.867L46.8879 10.004L47.3069 9.386L44.7839 7.67801L42.1909 11.509L42.1879 11.508ZM45.2679 13.662L46.2449 14.712C46.4282 14.9832 46.6712 15.2088 46.9554 15.3713C47.2396 15.5338 47.5573 15.6289 47.884 15.6492C48.2107 15.6696 48.5377 15.6148 48.8399 15.4888C49.1421 15.3629 49.4113 15.1693 49.6269 14.923C50.7879 13.843 50.7069 12.718 49.6499 11.58L48.6549 10.511L45.2709 13.664L45.2679 13.662ZM46.5019 13.922L48.8149 11.771L49.0899 12.071C49.7469 12.778 49.7299 13.389 48.8969 14.164C48.0639 14.939 47.4289 14.925 46.7769 14.223L46.5029 13.923L46.5019 13.922Z" fill="black"/>
<path d="M14.6529 38.36L15.1579 39.014L16.3149 38.588L17.2689 39.822L16.5689 40.845L17.1789 41.635L17.3929 41.469L19.8929 37.588L19.2419 36.746L14.8579 38.195L14.6439 38.361L14.6529 38.36ZM18.6889 37.714L18.6969 37.724L17.6869 39.206L17.0079 38.327L18.6879 37.713L18.6889 37.714ZM18.4739 43.014L19.3019 43.628L20.3019 42.286L20.6839 42.57C21.6389 43.279 22.4679 43.293 23.0629 42.492C23.6579 41.691 23.4049 40.911 22.4629 40.214L21.2319 39.3L18.4759 43.015L18.4739 43.014ZM21.6169 40.508L21.9989 40.792C22.5239 41.182 22.5129 41.486 22.2169 41.884C21.9209 42.282 21.5969 42.384 21.0929 42.013L20.7109 41.73L21.6169 40.509V40.508ZM22.7789 46.066L23.7369 46.447L24.3539 44.893L24.7959 45.069C25.9019 45.509 26.7059 45.309 27.0749 44.382C27.4439 43.455 26.9989 42.766 25.9119 42.334L24.4869 41.768L22.7789 46.068V46.066ZM25.1719 42.836L25.6139 43.012C26.2219 43.254 26.2889 43.55 26.1059 44.012C25.9229 44.474 25.6359 44.657 25.0529 44.425L24.6109 44.249L25.1719 42.836ZM30.3109 48.265L31.2479 48.385L31.2819 48.116L30.5379 46.269C30.7859 46.188 31.0038 46.0342 31.1633 45.8277C31.3227 45.6212 31.4163 45.3715 31.4319 45.111C31.5449 44.226 30.9679 43.686 29.8399 43.542L28.2989 43.342L27.7129 47.931L28.7359 48.062L28.9649 46.262L29.5649 46.338L30.3129 48.259L30.3109 48.265ZM29.2329 44.2L29.7249 44.263C30.2629 44.332 30.4559 44.589 30.3989 45.035C30.3419 45.481 30.0879 45.695 29.5509 45.626L29.0589 45.563L29.2329 44.2ZM35.0959 48.331C35.5702 48.3011 36.0245 48.1294 36.3999 47.8381C36.7753 47.5468 37.0545 47.1494 37.2012 46.6974C37.3479 46.2454 37.3553 45.7598 37.2226 45.3036C37.0898 44.8473 36.823 44.4415 36.4567 44.1388C36.0904 43.8361 35.6416 43.6505 35.1685 43.6061C34.6954 43.5616 34.2199 43.6605 33.8036 43.8897C33.3874 44.1189 33.0497 44.468 32.8343 44.8916C32.619 45.3151 32.5359 45.7936 32.5959 46.265C32.6102 46.57 32.6882 46.8687 32.8247 47.1419C32.9613 47.415 33.1534 47.6566 33.3888 47.8512C33.6242 48.0457 33.8976 48.1889 34.1916 48.2715C34.4856 48.3542 34.7936 48.3744 35.0959 48.331ZM35.0059 47.623C34.3309 47.709 33.7879 47.272 33.6449 46.151C33.5019 45.03 33.9139 44.445 34.5889 44.358C35.2639 44.271 35.8089 44.729 35.9529 45.858C36.0969 46.987 35.6749 47.539 35.0059 47.624V47.623ZM40.1059 47.136L41.0789 46.723L40.7739 42.123L40.6679 41.874L39.8829 42.207L40.1829 45.785L40.1709 45.79L37.8089 43.09L36.9029 43.475L37.0089 43.724L40.1089 47.14L40.1059 47.136ZM44.1369 45.231L46.5969 43.314L46.1499 42.741L44.4919 44.033L43.7119 43.033L44.8589 42.139L44.4239 41.582L43.2769 42.475L42.5539 41.547L44.1539 40.3L43.6949 39.711L41.2949 41.584L44.1389 45.232L44.1369 45.231ZM48.0439 41.992L48.9349 40.868C49.1756 40.646 49.3622 40.3718 49.4802 40.0663C49.5982 39.7608 49.6445 39.4324 49.6155 39.1062C49.5865 38.7801 49.483 38.4649 49.313 38.185C49.143 37.9052 48.911 37.6681 48.6349 37.492C47.3919 36.507 46.2919 36.757 45.3269 37.975L44.4199 39.12L48.0459 41.993L48.0439 41.992ZM48.1149 40.732L45.6389 38.77L45.8889 38.454C46.4889 37.698 47.0959 37.622 47.9889 38.328C48.8819 39.034 48.9629 39.664 48.3669 40.415L48.1169 40.731L48.1149 40.732Z" fill="black"/>
</svg>
