<svg width="14" height="14" viewBox="0 0 14 14" fill="none" xmlns="http://www.w3.org/2000/svg">
<path d="M6.99976 14.0002C8.38422 14.0002 9.73759 13.5897 10.8887 12.8205C12.0399 12.0513 12.9371 10.958 13.4669 9.67892C13.9967 8.39983 14.1353 6.99235 13.8652 5.63448C13.5951 4.27661 12.9285 3.02946 11.9495 2.0505C10.9705 1.07153 9.72325 0.404578 8.36539 0.134481C7.00752 -0.135615 5.60004 0.0031051 4.32095 0.532919C3.04187 1.06273 1.94864 1.9599 1.17947 3.11104C0.410304 4.26219 -0.000244141 5.61573 -0.000244141 7.0002C-0.000244141 8.85672 0.737264 10.6372 2.05002 11.9499C3.36277 13.2627 5.14324 14.0002 6.99976 14.0002Z" fill="#008435"/>
<path d="M4.53876 7.88803L5.61676 9.41782C5.65775 9.47877 5.71269 9.52931 5.77701 9.56479C5.84133 9.60027 5.91318 9.61977 5.9866 9.62192C6.06003 9.62407 6.1329 9.60865 6.19919 9.577C6.26548 9.54535 6.32328 9.49824 6.36777 9.43979L9.81876 5.07309" stroke="white" stroke-width="1.5" stroke-linecap="round" stroke-linejoin="round"/>
</svg>
