<svg width="31" height="24" viewBox="0 0 31 24" fill="none" xmlns="http://www.w3.org/2000/svg">
<path d="M8.70692 24C9.91808 24 10.8999 23.0182 10.8999 21.807C10.8999 20.5958 9.91808 19.614 8.70692 19.614C7.49576 19.614 6.51392 20.5958 6.51392 21.807C6.51392 23.0182 7.49576 24 8.70692 24Z" fill="black"/>
<path d="M19.9029 24C21.1141 24 22.0959 23.0182 22.0959 21.807C22.0959 20.5958 21.1141 19.614 19.9029 19.614C18.6918 19.614 17.7099 20.5958 17.7099 21.807C17.7099 23.0182 18.6918 24 19.9029 24Z" fill="black"/>
<path d="M8.24092 15.362H22.5319L24.6319 5.472H6.38792L5.92492 3H0.815918V4.648H4.45692L7.08192 18.659H22.6899V17.011H8.54992L8.24092 15.362Z" fill="black"/>
<path d="M30.9619 6C30.9619 2.68629 28.2756 0 24.9619 0C21.6482 0 18.9619 2.68629 18.9619 6C18.9619 9.31371 21.6482 12 24.9619 12C28.2756 12 30.9619 9.31371 30.9619 6Z" fill="black"/>
<path d="M30.4619 6C30.4619 2.96243 27.9995 0.5 24.9619 0.5C21.9243 0.5 19.4619 2.96243 19.4619 6C19.4619 9.03757 21.9243 11.5 24.9619 11.5C27.9995 11.5 30.4619 9.03757 30.4619 6Z" stroke="#FFA500"/>
<path d="M24.8549 3V9" stroke="#FFA500" stroke-width="1.5" stroke-linecap="round"/>
<path d="M21.9619 6H27.9619" stroke="#FFA500" stroke-width="1.5" stroke-linecap="round"/>
</svg>
